<svg xmlns="http://www.w3.org/2000/svg" viewBox="0 0 544 63.3"><defs><style>.cls-1{fill:#333;}.cls-2{fill:#fff;}</style></defs><g id="Layer_2" data-name="Layer 2"><g id="Layer_1-2" data-name="Layer 1"><rect class="cls-1" width="62.88" height="63.3" rx="3.18"/><rect class="cls-1" x="68.81" width="62.88" height="63.3" rx="3.18"/><rect class="cls-1" x="137.62" width="62.88" height="63.3" rx="3.18"/><rect class="cls-1" x="206.43" width="62.88" height="63.3" rx="3.18"/><rect class="cls-1" x="275.25" width="62.88" height="63.3" rx="3.18"/><rect class="cls-1" x="344.06" width="62.88" height="63.3" rx="3.18"/><rect class="cls-1" x="412.87" width="131.13" height="63.3" rx="4.91"/><path class="cls-2" d="M26.86,43.65a9.32,9.32,0,0,1-3.7-2.45l.63-.85a8.94,8.94,0,0,0,3.42,2.3,12.18,12.18,0,0,0,4.68.89,9,9,0,0,0,5.56-1.45,4.54,4.54,0,0,0,1.87-3.73,4,4,0,0,0-1-2.82,6.26,6.26,0,0,0-2.42-1.62A35.49,35.49,0,0,0,32,32.78a35.42,35.42,0,0,1-4.28-1.29A6.81,6.81,0,0,1,25,29.56a5.1,5.1,0,0,1-1.13-3.47,5.74,5.74,0,0,1,.92-3.15,6.19,6.19,0,0,1,2.78-2.3,11.28,11.28,0,0,1,4.68-.86,13.26,13.26,0,0,1,3.94.6A10.52,10.52,0,0,1,39.5,22L39,23a10.71,10.71,0,0,0-3.21-1.59,11.58,11.58,0,0,0-3.48-.55,8.48,8.48,0,0,0-5.42,1.49A4.65,4.65,0,0,0,25,26.09,4,4,0,0,0,26,29a6.63,6.63,0,0,0,2.45,1.63,32.16,32.16,0,0,0,3.91,1.15A40.49,40.49,0,0,1,36.66,33a6.58,6.58,0,0,1,2.71,1.9,5,5,0,0,1,1.11,3.41,5.7,5.7,0,0,1-.93,3.16,6.27,6.27,0,0,1-2.86,2.27,11.72,11.72,0,0,1-4.76.85A13.72,13.72,0,0,1,26.86,43.65Z"/><path class="cls-2" d="M94.11,43a11.67,11.67,0,0,1-4.53-4.45,12.36,12.36,0,0,1-1.65-6.34,12.36,12.36,0,0,1,1.65-6.34,11.77,11.77,0,0,1,4.53-4.46,13.83,13.83,0,0,1,13,0,11.78,11.78,0,0,1,4.56,4.46,12.36,12.36,0,0,1,1.65,6.34,12.36,12.36,0,0,1-1.65,6.34A11.68,11.68,0,0,1,107.06,43a13.75,13.75,0,0,1-13,0ZM106.43,42A10.79,10.79,0,0,0,110.57,38a11.82,11.82,0,0,0,0-11.56,10.79,10.79,0,0,0-4.14-4.07,12.34,12.34,0,0,0-11.68,0,10.74,10.74,0,0,0-4.12,4.07,11.82,11.82,0,0,0,0,11.56A10.74,10.74,0,0,0,94.75,42a12.34,12.34,0,0,0,11.68,0Z"/><path class="cls-2" d="M186.75,20.05l-8.29,24.27h-1.18l-7.9-22.64-7.87,22.64h-1.22L152,20.05h1.25l7.66,22.57,7.9-22.57H170l7.87,22.61,7.73-22.61Z"/><path class="cls-2" d="M231.67,43a11.7,11.7,0,0,1-4.54-4.45,12.36,12.36,0,0,1-1.65-6.34,12.36,12.36,0,0,1,1.65-6.34,11.79,11.79,0,0,1,4.54-4.46,13.83,13.83,0,0,1,13,0,11.78,11.78,0,0,1,4.56,4.46,12.36,12.36,0,0,1,1.64,6.34,12.36,12.36,0,0,1-1.64,6.34A11.68,11.68,0,0,1,244.62,43a13.75,13.75,0,0,1-13,0ZM244,42A10.86,10.86,0,0,0,248.13,38a11.89,11.89,0,0,0,0-11.56A10.86,10.86,0,0,0,244,22.34a12.36,12.36,0,0,0-11.69,0,10.88,10.88,0,0,0-4.12,4.07,11.89,11.89,0,0,0,0,11.56A10.88,10.88,0,0,0,232.3,42,12.36,12.36,0,0,0,244,42Z"/><path class="cls-2" d="M300.45,43a11.7,11.7,0,0,1-4.54-4.45,12.36,12.36,0,0,1-1.65-6.34,12.36,12.36,0,0,1,1.65-6.34,11.79,11.79,0,0,1,4.54-4.46,13.83,13.83,0,0,1,12.95,0A11.78,11.78,0,0,1,318,25.85a13.07,13.07,0,0,1,0,12.68A11.68,11.68,0,0,1,313.4,43a13.75,13.75,0,0,1-12.95,0ZM312.77,42A10.77,10.77,0,0,0,316.9,38a11.82,11.82,0,0,0,0-11.56,10.77,10.77,0,0,0-4.13-4.07,12.36,12.36,0,0,0-11.69,0A10.88,10.88,0,0,0,297,26.41,11.82,11.82,0,0,0,297,38,10.88,10.88,0,0,0,301.08,42a12.36,12.36,0,0,0,11.69,0Z"/><path class="cls-2" d="M385.51,19.92V44.46h-1L367.11,22.09V44.46h-1.19V19.92h1l17.42,22.36V19.92Z"/><path class="cls-2" d="M519.25,33.88H442V32.39h77.29a1.26,1.26,0,0,0,1.26-1.26V18.3H522V31.13A2.75,2.75,0,0,1,519.25,33.88Z"/><path class="cls-2" d="M436.38,33.4l9.52,9.52a.38.38,0,0,0,.65-.26v-19a.38.38,0,0,0-.65-.27l-9.52,9.53A.37.37,0,0,0,436.38,33.4Z"/></g></g></svg>