<svg xmlns="http://www.w3.org/2000/svg" viewBox="0 0 1100 128"><defs><style>.cls-1{fill:#333;}.cls-2{fill:#fff;}</style></defs><g id="Layer_2" data-name="Layer 2"><g id="Layer_1-2" data-name="Layer 1"><rect class="cls-1" width="26.88" height="19.2" rx="6.43"/><rect class="cls-1" x="139.14" width="127.16" height="128" rx="6.43"/><rect class="cls-1" x="278.28" width="127.16" height="128" rx="6.43"/><rect class="cls-1" x="417.42" width="127.16" height="128" rx="6.43"/><rect class="cls-1" x="556.56" width="127.16" height="128" rx="6.43"/><rect class="cls-1" x="695.7" width="127.16" height="128" rx="6.43"/><rect class="cls-1" x="834.84" width="265.16" height="128" rx="9.93"/><path class="cls-2" d="M54.31,88.26a18.58,18.58,0,0,1-7.47-5l1.27-1.7A18,18,0,0,0,55,86.24a24.7,24.7,0,0,0,9.46,1.81q7.44,0,11.24-2.94a9.16,9.16,0,0,0,3.79-7.55,8.07,8.07,0,0,0-2-5.7,12.49,12.49,0,0,0-4.89-3.26,67.9,67.9,0,0,0-7.93-2.31,71.49,71.49,0,0,1-8.65-2.62,13.89,13.89,0,0,1-5.53-3.9,10.33,10.33,0,0,1-2.27-7,11.67,11.67,0,0,1,1.85-6.38,12.59,12.59,0,0,1,5.63-4.64A22.68,22.68,0,0,1,65.19,40a27.12,27.12,0,0,1,8,1.2,20.92,20.92,0,0,1,6.7,3.34L78.8,46.45a21.8,21.8,0,0,0-6.49-3.23,23.94,23.94,0,0,0-7-1.09q-7.23,0-11,3a9.4,9.4,0,0,0-3.72,7.62,8.13,8.13,0,0,0,2,5.77,13.25,13.25,0,0,0,5,3.3,68.77,68.77,0,0,0,7.91,2.34,78.91,78.91,0,0,1,8.64,2.58,13.49,13.49,0,0,1,5.49,3.83,10.22,10.22,0,0,1,2.24,6.91A11.53,11.53,0,0,1,80,83.87a12.58,12.58,0,0,1-5.78,4.6,24,24,0,0,1-9.64,1.71A27.6,27.6,0,0,1,54.31,88.26Z"/><path class="cls-2" d="M190.3,86.92a23.91,23.91,0,0,1-9.17-9,25.06,25.06,0,0,1-3.33-12.82,25.1,25.1,0,0,1,3.33-12.83,23.81,23.81,0,0,1,9.17-9,27.93,27.93,0,0,1,26.19,0,23.71,23.71,0,0,1,9.21,9A25.1,25.1,0,0,1,229,65.09a25.06,25.06,0,0,1-3.33,12.82,23.81,23.81,0,0,1-9.21,9,27.93,27.93,0,0,1-26.19,0ZM215.22,85a21.79,21.79,0,0,0,8.36-8.22,23.95,23.95,0,0,0,0-23.39,21.93,21.93,0,0,0-8.36-8.22,25,25,0,0,0-23.64,0,22,22,0,0,0-8.33,8.22,24,24,0,0,0,0,23.39A21.85,21.85,0,0,0,191.58,85a24.93,24.93,0,0,0,23.64,0Z"/><path class="cls-2" d="M377.61,40.55,360.86,89.62h-2.39l-16-45.77L326.58,89.62h-2.46L307.37,40.55h2.52l15.49,45.64,16-45.64h2.31l15.91,45.71,15.64-45.71Z"/><path class="cls-2" d="M468.45,86.92a23.87,23.87,0,0,1-9.18-9,25.06,25.06,0,0,1-3.33-12.82,25.1,25.1,0,0,1,3.33-12.83,23.77,23.77,0,0,1,9.18-9,27.93,27.93,0,0,1,26.19,0,23.71,23.71,0,0,1,9.21,9,25.1,25.1,0,0,1,3.33,12.83,25.06,25.06,0,0,1-3.33,12.82,23.81,23.81,0,0,1-9.21,9,27.93,27.93,0,0,1-26.19,0ZM493.36,85a21.81,21.81,0,0,0,8.37-8.22,24,24,0,0,0,0-23.39,22,22,0,0,0-8.37-8.22,25,25,0,0,0-23.63,0,22,22,0,0,0-8.33,8.22,23.95,23.95,0,0,0,0,23.39A21.85,21.85,0,0,0,469.73,85a24.91,24.91,0,0,0,23.63,0Z"/><path class="cls-2" d="M607.53,86.92a23.87,23.87,0,0,1-9.18-9A25.06,25.06,0,0,1,595,65.09a25.1,25.1,0,0,1,3.33-12.83,23.77,23.77,0,0,1,9.18-9,27.91,27.91,0,0,1,26.18,0,23.71,23.71,0,0,1,9.21,9,25,25,0,0,1,3.34,12.83,25,25,0,0,1-3.34,12.82,23.81,23.81,0,0,1-9.21,9,27.91,27.91,0,0,1-26.18,0ZM632.44,85a21.79,21.79,0,0,0,8.36-8.22,23.95,23.95,0,0,0,0-23.39,21.93,21.93,0,0,0-8.36-8.22,25,25,0,0,0-23.64,0,22.06,22.06,0,0,0-8.33,8.22,24,24,0,0,0,0,23.39A21.92,21.92,0,0,0,608.8,85a24.93,24.93,0,0,0,23.64,0Z"/><path class="cls-2" d="M779.52,40.28V89.89h-2L742.31,44.68V89.89H739.9V40.28h2L777.11,85.5V40.28Z"/><path class="cls-2" d="M1049.94,68.5H893.67v-3h156.27a2.56,2.56,0,0,0,2.56-2.56V37h3V62.94A5.56,5.56,0,0,1,1049.94,68.5Z"/><path class="cls-2" d="M882.38,67.54,901.63,86.8a.77.77,0,0,0,1.31-.55V47.75a.77.77,0,0,0-1.31-.55L882.38,66.46A.76.76,0,0,0,882.38,67.54Z"/></g></g></svg>
